SRRun01_grf
version=1
nRows=18
nColumns=19
inDegrees=no
endheader
time	ground_force_r_vx	ground_force_r_vy	ground_force_r_vz	ground_force_r_px	ground_force_r_py	ground_force_r_pz	ground_force_r_mx	ground_force_r_my	ground_force_r_mz	ground_force_l_vx	ground_force_l_vy	ground_force_l_vz	ground_force_l_px	ground_force_l_py	ground_force_l_pz	ground_force_l_mx	ground_force_l_my	ground_force_l_mz
    144.99800000	      0.00000000	      0.00000000	      0.00000000	      0.00000000	      0.00000000	      0.00000000	      0.00000000	      0.00000000	      0.00000000	    224.70236973	    897.08391040	     49.44905593	      0.80745176	      0.00000000	     -0.94000321	      0.00004211	     20.24850998	      0.00003677
    144.99900000	      0.00000000	      0.00000000	      0.00000000	      0.00000000	      0.00000000	      0.00000000	      0.00000000	      0.00000000	      0.00000000	    198.04378007	    928.64065013	     40.66422002	      0.80838734	      0.00000000	     -0.94091640	      0.00004324	     25.73918688	      0.00003863
    145.00000000	      0.00000000	      0.00000000	      0.00000000	      0.00000000	      0.00000000	      0.00000000	      0.00000000	      0.00000000	      0.00000000	    162.45866952	    957.61575229	     31.76267934	      0.80839437	      0.00000000	     -0.94153496	      0.00004408	     30.44427006	      0.00004026
    145.00100000	      0.00000000	      0.00000000	      0.00000000	      0.00000000	      0.00000000	      0.00000000	      0.00000000	      0.00000000	      0.00000000	    119.19132773	    983.74798780	     23.30799786	      0.80754805	      0.00000000	     -0.94169600	      0.00004467	     33.82580989	      0.00004161
    145.00200000	      0.00000000	      0.00000000	      0.00000000	      0.00000000	      0.00000000	      0.00000000	      0.00000000	      0.00000000	      0.00000000	     69.93156074	   1006.83689737	     15.89833744	      0.80595926	      0.00000000	     -0.94126254	      0.00004502	     35.37442983	      0.00004261
    145.00300000	      0.00000000	      0.00000000	      0.00000000	      0.00000000	      0.00000000	      0.00000000	      0.00000000	      0.00000000	      0.00000000	     16.72087379	   1026.76691257	     10.12520707	      0.80376754	      0.00000000	     -0.94013649	      0.00004517	     34.66318365	      0.00004323
    145.00400000	      0.00000000	      0.00000000	      0.00000000	      0.00000000	      0.00000000	      0.00000000	      0.00000000	      0.00000000	      0.00000000	    -38.16320794	   1043.52934173	      6.52778386	      0.80113316	      0.00000000	     -0.93826826	      0.00004514	     31.40112925	      0.00004348
    145.00500000	      0.00000000	      0.00000000	      0.00000000	      0.00000000	      0.00000000	      0.00000000	      0.00000000	      0.00000000	      0.00000000	    -92.33564871	   1057.23753864	      5.54687938	      0.79822854	      0.00000000	     -0.93566278	      0.00004497	     25.48083521	      0.00004340
    145.00600000	      0.00000000	      0.00000000	      0.00000000	      0.00000000	      0.00000000	      0.00000000	      0.00000000	      0.00000000	      0.00000000	   -143.43577448	   1068.13117143	      7.48360557	      0.79522977	      0.00000000	     -0.93238116	      0.00004471	     17.01389985	      0.00004304
    145.00700000	      0.00000000	      0.00000000	      0.00000000	      0.00000000	      0.00000000	      0.00000000	      0.00000000	      0.00000000	      0.00000000	   -189.25357475	   1076.56746121	     12.46788903	      0.79230829	      0.00000000	     -0.92853752	      0.00004438	      6.34893109	      0.00004250
    145.00800000	      0.00000000	      0.00000000	      0.00000000	      0.00000000	      0.00000000	      0.00000000	      0.00000000	      0.00000000	      0.00000000	   -227.84274799	   1082.99973987	     20.44110693	      0.78962331	      0.00000000	     -0.92429076	      0.00004404	     -5.93253653	      0.00004188
    145.00900000	      0.00000000	      0.00000000	      0.00000000	      0.00000000	      0.00000000	      0.00000000	      0.00000000	      0.00000000	      0.00000000	   -257.61449099	   1087.94577345	     31.15555184	      0.78731510	      0.00000000	     -0.91983125	      0.00004376	    -19.04475243	      0.00004130
    145.01000000	      0.00000000	      0.00000000	      0.00000000	      0.00000000	      0.00000000	      0.00000000	      0.00000000	      0.00000000	      0.00000000	   -277.40785755	   1091.94949953	     44.19148286	      0.78549919	      0.00000000	     -0.91536351	      0.00004359	    -32.05077990	      0.00004084
    145.01100000	      0.00000000	      0.00000000	      0.00000000	      0.00000000	      0.00000000	      0.00000000	      0.00000000	      0.00000000	      0.00000000	   -286.53424941	   1095.54017910	     58.99035057	      0.78426154	      0.00000000	     -0.91108684	      0.00004358	    -43.93626283	      0.00004059
    145.01200000	      0.00000000	      0.00000000	      0.00000000	      0.00000000	      0.00000000	      0.00000000	      0.00000000	      0.00000000	      0.00000000	   -284.79524281	   1099.19293525	     74.90054038	      0.78365500	      0.00000000	     -0.90717648	      0.00004378	    -53.69735931	      0.00004061
    145.01300000	      0.00000000	      0.00000000	      0.00000000	      0.00000000	      0.00000000	      0.00000000	      0.00000000	      0.00000000	      0.00000000	   -272.47459800	   1103.29471840	     91.23005176	      0.78369726	      0.00000000	     -0.90376806	      0.00004423	    -60.43406302	      0.00004093
    145.01400000	      0.00000000	      0.00000000	      0.00000000	      0.00000000	      0.00000000	      0.00000000	      0.00000000	      0.00000000	      0.00000000	   -250.30691277	   1108.11987335	    107.29955424	      0.78437068	      0.00000000	     -0.90094765	      0.00004492	    -63.43899716	      0.00004155
    145.01500000	      0.00000000	      0.00000000	      0.00000000	      0.00000000	      0.00000000	      0.00000000	      0.00000000	      0.00000000	      0.00000000	   -219.42672310	   1113.81909122	    122.48967938	      0.78562410	      0.00000000	     -0.89874860	      0.00004584	    -62.27192030	      0.00004247
